<mxfile host="Electron" modified="2024-07-10T20:34:03.492Z" agent="Mozilla/5.0 (X11; Linux x86_64) AppleWebKit/537.36 (KHTML, like Gecko) draw.io/24.2.5 Chrome/122.0.6261.156 Electron/29.3.0 Safari/537.36" etag="OTiVbFzoQ3hdcVdXfsU5" version="24.2.5" type="device">
  <diagram name="Page-1" id="cfpff7YeiwG7N3JgC-qO">
    <mxGraphModel dx="3348" dy="2906" grid="1" gridSize="10" guides="1" tooltips="1" connect="1" arrows="1" fold="1" page="1" pageScale="1" pageWidth="850" pageHeight="1100" math="0" shadow="0">
      <root>
        <mxCell id="0" />
        <mxCell id="1" parent="0" />
        <mxCell id="yjXQw0Uv3wNbwan0e5pU-23" value="j" style="edgeStyle=orthogonalEdgeStyle;rounded=0;orthogonalLoop=1;jettySize=auto;html=1;exitX=1;exitY=0.5;exitDx=0;exitDy=0;" parent="1" source="yjXQw0Uv3wNbwan0e5pU-1" target="yjXQw0Uv3wNbwan0e5pU-8" edge="1">
          <mxGeometry relative="1" as="geometry" />
        </mxCell>
        <mxCell id="yjXQw0Uv3wNbwan0e5pU-24" value="&lt;font style=&quot;font-size: 24px;&quot;&gt;Send SSH message&lt;/font&gt;" style="edgeLabel;html=1;align=center;verticalAlign=middle;resizable=0;points=[];" parent="yjXQw0Uv3wNbwan0e5pU-23" vertex="1" connectable="0">
          <mxGeometry y="1" relative="1" as="geometry">
            <mxPoint as="offset" />
          </mxGeometry>
        </mxCell>
        <mxCell id="yjXQw0Uv3wNbwan0e5pU-1" value="" style="whiteSpace=wrap;html=1;aspect=fixed;fillColor=none;fontSize=16;" parent="1" vertex="1">
          <mxGeometry x="40" y="-1100" width="680" height="680" as="geometry" />
        </mxCell>
        <mxCell id="yjXQw0Uv3wNbwan0e5pU-3" value="Ansible Api&lt;div style=&quot;font-size: 16px;&quot;&gt;&lt;br style=&quot;font-size: 16px;&quot;&gt;&lt;/div&gt;" style="whiteSpace=wrap;html=1;aspect=fixed;fontSize=16;" parent="1" vertex="1">
          <mxGeometry x="540" y="-817.5" width="130" height="130" as="geometry" />
        </mxCell>
        <mxCell id="yjXQw0Uv3wNbwan0e5pU-4" value="&lt;div style=&quot;font-size: 16px;&quot;&gt;Validation&lt;/div&gt;" style="whiteSpace=wrap;html=1;aspect=fixed;fontSize=16;" parent="1" vertex="1">
          <mxGeometry x="430" y="-590" width="110" height="110" as="geometry" />
        </mxCell>
        <mxCell id="ZvsKiOMpcHw9kWAoKSDQ-3" style="edgeStyle=orthogonalEdgeStyle;rounded=0;orthogonalLoop=1;jettySize=auto;html=1;exitX=1;exitY=0.5;exitDx=0;exitDy=0;" edge="1" parent="1" source="yjXQw0Uv3wNbwan0e5pU-5" target="yjXQw0Uv3wNbwan0e5pU-4">
          <mxGeometry relative="1" as="geometry" />
        </mxCell>
        <mxCell id="ZvsKiOMpcHw9kWAoKSDQ-5" value="SocketIO" style="edgeLabel;html=1;align=center;verticalAlign=middle;resizable=0;points=[];" vertex="1" connectable="0" parent="ZvsKiOMpcHw9kWAoKSDQ-3">
          <mxGeometry x="-0.0333" y="9" relative="1" as="geometry">
            <mxPoint as="offset" />
          </mxGeometry>
        </mxCell>
        <mxCell id="yjXQw0Uv3wNbwan0e5pU-5" value="&lt;div style=&quot;font-size: 16px;&quot;&gt;TImer&lt;/div&gt;" style="whiteSpace=wrap;html=1;aspect=fixed;fontSize=16;" parent="1" vertex="1">
          <mxGeometry x="200" y="-590" width="110" height="110" as="geometry" />
        </mxCell>
        <mxCell id="yjXQw0Uv3wNbwan0e5pU-8" value="&lt;font style=&quot;font-size: 24px;&quot;&gt;Shared Network&lt;/font&gt;" style="whiteSpace=wrap;html=1;aspect=fixed;fillColor=none;" parent="1" vertex="1">
          <mxGeometry x="950" y="-830" width="500" height="500" as="geometry" />
        </mxCell>
        <mxCell id="yjXQw0Uv3wNbwan0e5pU-16" style="edgeStyle=orthogonalEdgeStyle;rounded=0;orthogonalLoop=1;jettySize=auto;html=1;exitX=1;exitY=0.5;exitDx=0;exitDy=0;" parent="1" source="yjXQw0Uv3wNbwan0e5pU-9" target="yjXQw0Uv3wNbwan0e5pU-11" edge="1">
          <mxGeometry relative="1" as="geometry" />
        </mxCell>
        <mxCell id="yjXQw0Uv3wNbwan0e5pU-9" value="Red teams" style="whiteSpace=wrap;html=1;aspect=fixed;fontSize=16;" parent="1" vertex="1">
          <mxGeometry x="1000" y="-610" width="80" height="80" as="geometry" />
        </mxCell>
        <mxCell id="yjXQw0Uv3wNbwan0e5pU-26" style="edgeStyle=orthogonalEdgeStyle;rounded=0;orthogonalLoop=1;jettySize=auto;html=1;exitX=0.5;exitY=1;exitDx=0;exitDy=0;entryX=0.5;entryY=1;entryDx=0;entryDy=0;" parent="1" source="yjXQw0Uv3wNbwan0e5pU-11" target="yjXQw0Uv3wNbwan0e5pU-4" edge="1">
          <mxGeometry relative="1" as="geometry" />
        </mxCell>
        <mxCell id="yjXQw0Uv3wNbwan0e5pU-27" value="&lt;font style=&quot;font-size: 24px;&quot;&gt;Sends the flag to terminate the instance&lt;/font&gt;" style="edgeLabel;html=1;align=center;verticalAlign=middle;resizable=0;points=[];" parent="yjXQw0Uv3wNbwan0e5pU-26" vertex="1" connectable="0">
          <mxGeometry x="0.0324" relative="1" as="geometry">
            <mxPoint as="offset" />
          </mxGeometry>
        </mxCell>
        <mxCell id="yjXQw0Uv3wNbwan0e5pU-11" value="Blue team" style="whiteSpace=wrap;html=1;aspect=fixed;fontSize=16;" parent="1" vertex="1">
          <mxGeometry x="1320" y="-620" width="100" height="100" as="geometry" />
        </mxCell>
        <mxCell id="yjXQw0Uv3wNbwan0e5pU-17" value="&lt;span style=&quot;font-size: 24px;&quot;&gt;Host APP&lt;/span&gt;" style="text;html=1;align=center;verticalAlign=middle;resizable=0;points=[];autosize=1;strokeColor=none;fillColor=none;" parent="1" vertex="1">
          <mxGeometry x="300" y="-1050" width="130" height="40" as="geometry" />
        </mxCell>
        <mxCell id="yjXQw0Uv3wNbwan0e5pU-22" value="&lt;span style=&quot;font-size: 24px;&quot;&gt;Children&lt;/span&gt;" style="text;html=1;align=center;verticalAlign=middle;resizable=0;points=[];autosize=1;strokeColor=none;fillColor=none;" parent="1" vertex="1">
          <mxGeometry x="1140" y="-870" width="110" height="40" as="geometry" />
        </mxCell>
        <mxCell id="ZvsKiOMpcHw9kWAoKSDQ-10" style="edgeStyle=orthogonalEdgeStyle;rounded=0;orthogonalLoop=1;jettySize=auto;html=1;" edge="1" parent="1" source="ZvsKiOMpcHw9kWAoKSDQ-9" target="yjXQw0Uv3wNbwan0e5pU-3">
          <mxGeometry relative="1" as="geometry" />
        </mxCell>
        <mxCell id="ZvsKiOMpcHw9kWAoKSDQ-11" style="edgeStyle=orthogonalEdgeStyle;rounded=0;orthogonalLoop=1;jettySize=auto;html=1;exitX=0;exitY=1;exitDx=0;exitDy=0;" edge="1" parent="1" source="ZvsKiOMpcHw9kWAoKSDQ-9" target="yjXQw0Uv3wNbwan0e5pU-5">
          <mxGeometry relative="1" as="geometry" />
        </mxCell>
        <mxCell id="ZvsKiOMpcHw9kWAoKSDQ-9" value="&lt;div style=&quot;font-size: 16px;&quot;&gt;Flask&lt;/div&gt;&lt;div style=&quot;font-size: 16px;&quot;&gt;App&lt;/div&gt;" style="whiteSpace=wrap;html=1;aspect=fixed;fontSize=16;" vertex="1" parent="1">
          <mxGeometry x="80" y="-812.5" width="125" height="125" as="geometry" />
        </mxCell>
        <mxCell id="ZvsKiOMpcHw9kWAoKSDQ-14" value="&lt;div style=&quot;text-align: center;&quot;&gt;&lt;span style=&quot;font-size: 24px; text-wrap: nowrap;&quot;&gt;Boot servers&lt;/span&gt;&lt;/div&gt;&lt;div style=&quot;text-align: center;&quot;&gt;&lt;span style=&quot;font-size: 24px; text-wrap: nowrap;&quot;&gt;&lt;br&gt;&lt;/span&gt;&lt;/div&gt;" style="text;whiteSpace=wrap;html=1;" vertex="1" parent="1">
          <mxGeometry x="510" y="-870" width="165" height="50" as="geometry" />
        </mxCell>
      </root>
    </mxGraphModel>
  </diagram>
</mxfile>
